# xmcd
#
# Track frame offsets:
#	150
#	17867
#	36992
#
# Disc length: 772 seconds
#
# Revision: 1
# Processed by: cddbd v1.5.2PL0 Copyright (c) Steve Scherf et al.
# Submitted via: audiograbber 1.82.01
#
DISCID=1f030203
DTITLE=Nelson - Love and Affection
DYEAR=1990
DGENRE=
TTITLE0=Love and Affection
TTITLE1=Will You Love Me
TTITLE2=Fill You Up
EXTD=
EXTT0=
EXTT1=
EXTT2=
PLAYORDER=
